# xmcd
#
# Track frame offsets:
# 150
# 17540
# 26500
# 37437
# 48090
# 60730
# 76027
# 91680
# 106015
# 118217
# 129667
# 144737
# 155687
# 171600
# 185712
#
# Disc length: 2628 seconds
#
#
# Revision: 0
# Processed by: cddbd v1.5.2PL0 Copyright (c) Steve Scherf et al.
# Submitted via: FreeRIP 2.944 
#
DISCID=cb0a420f
DTITLE=Os Filhos do Rio Grande - Namoro de Gaita
DYEAR=1900
DGENRE=Folk
TTITLE0=Bota Seca - Xote
TTITLE1=Recordando São Francisco - Xote
TTITLE2=Namoro de Gaita
TTITLE3=Trança de China - Vaneirão
TTITLE4=Um abraço pro Gaiteiro - Xote
TTITLE5=Encontro de Gaúchos - Xote
TTITLE6=Bugio Extraviado
TTITLE7=Babando na Barba - Bugio
TTITLE8=Caminho do Baile - Marcha
TTITLE9=Chuva de Pedra - Marcha
TTITLE10=Domingueira Gaúcha - Vanera
TTITLE11=Duas Gaitas no Fandango - Vanera
TTITLE12=Gaitaço do Tio Gusto - Vanera
TTITLE13=Babando no Fole
TTITLE14=Bugio da Restinga Funda
EXTD=
EXTT0=
EXTT1=
EXTT2=
EXTT3=
EXTT4=
EXTT5=
EXTT6=
EXTT7=
EXTT8=
EXTT9=
EXTT10=
EXTT11=
EXTT12=
EXTT13=
EXTT14=
PLAYORDER=
